<svg id="Capa_1" enable-background="new 0 0 512 512" height="512" viewBox="0 0 512 512" width="512" xmlns="http://www.w3.org/2000/svg"><circle cx="256" cy="256" fill="#4a7aff" r="256"/><path d="m511.325 274.569-133.336-133.335-2.026 3.025-70.464-70.464-243.162 282.41 152.481 152.481c13.409 2.169 27.161 3.314 41.182 3.314 135.139 0 245.81-104.716 255.325-237.431z" fill="#0053bf"/><path d="m423.601 333.007h-335.202v-76.856c0-92.563 75.037-167.601 167.601-167.601 92.563 0 167.601 75.037 167.601 167.601z" fill="#ffa300"/><path d="m423.601 256.151c0-92.563-75.037-167.601-167.601-167.601-.135 0-.269.005-.405.005v244.451h168.006z" fill="#fe8205"/><path d="m206.501 73.795h98.997v248.644h-98.997z" fill="#ff7f00"/><path d="m255.595 73.795h49.903v248.644h-49.903z" fill="#e56022"/><path d="m62.337 276.394h387.326v79.812h-387.326z" fill="#fdba12"/><path d="m255.595 276.394h194.068v79.812h-194.068z" fill="#ffa300"/></svg>